#define _width 8
#define _height 8
static char _bits[] = {
 0x66,0x99,0x00,0x24,0x42,0x7e,0x3c,0x00 };
