#define _width 8
#define _height 8
static char _bits[] = {
 0x7e,0x3c,0x00,0x18,0x18,0x18,0x00,0x3c };
