#define _width 8
#define _height 8
static char _bits[] = {
 0x11,0xaa,0x44,0xaa,0x11,0xaa,0x44,0xaa };
