#define _width 8
#define _height 8
static char _bits[] = {
 0x10,0x00,0x54,0x00,0x45,0x00,0x54,0x00 };
