#define _width 8
#define _height 8
static char _bits[] = {
 0x01,0x21,0x28,0x08,0x4a,0x42,0x10,0x11 };
