#define _width 8
#define _height 8
static char _bits[] = {
 0x00,0x24,0x3c,0x24,0x3c,0xa5,0x81,0x7e };
