#define _width 8
#define _height 8
static char _bits[] = {
 0x19,0x99,0xa5,0xda,0x98,0xa4,0x24,0x7e };
