#define _width 8
#define _height 8
static char _bits[] = {
 0xfd,0x00,0xdf,0xdf,0xdf,0x00,0xfd,0xfd };
