#define _width 8
#define _height 8
static char _bits[] = {
 0x00,0x06,0x99,0x60,0x06,0x99,0x60,0x00 };
