#define _width 8
#define _height 8
static char _bits[] = {
 0x00,0x00,0x00,0xfe,0xa1,0xd9,0x06,0x00 };
