#define _width 8
#define _height 8
static char _bits[] = {
 0x00,0x60,0xff,0xff,0x60,0xf0,0x60,0x00 };
