#define _width 8
#define _height 8
static char _bits[] = {
 0x00,0x12,0x0c,0x1e,0x61,0x81,0x81,0x7e };
