#define _width 8
#define _height 8
static char _bits[] = {
 0x08,0x14,0x48,0xa8,0x54,0x2a,0x24,0x70 };
