#define _width 8
#define _height 8
static char _bits[] = {
 0x02,0x06,0x04,0x10,0x18,0x18,0x5a,0x3c };
