#define _width 8
#define _height 8
static char _bits[] = {
 0x00,0x7e,0xe7,0xe7,0xbd,0x81,0xff,0x00 };
