#define _width 8
#define _height 8
static char _bits[] = {
 0x00,0x00,0x30,0x4c,0x52,0xff,0x7e,0x00 };
