#define _width 8
#define _height 8
static char _bits[] = {
 0x00,0x3c,0x42,0x5a,0x52,0x44,0x48,0x30 };
