#define _width 8
#define _height 8
static char _bits[] = {
 0x00,0x1c,0x12,0x12,0x14,0x14,0x38,0x78 };
