#define _width 8
#define _height 8
static char _bits[] = {
 0x7e,0x3c,0x18,0xdb,0xbd,0x7e,0x3c,0x18 };
