#define _width 8
#define _height 8
static char _bits[] = {
 0x00,0x00,0x04,0x1f,0x7f,0x04,0x00,0x00 };
