#define _width 8
#define _height 8
static char _bits[] = {
 0x00,0x66,0x99,0xa5,0x42,0x5a,0x24,0x00 };
