#define _width 8
#define _height 8
static char _bits[] = {
 0x00,0x00,0x02,0x43,0xa1,0x80,0x7e,0x3c };
