#define _width 8
#define _height 8
static char _bits[] = {
 0x00,0x00,0x3e,0x41,0x42,0x4c,0x30,0x00 };
