#define _width 8
#define _height 8
static char _bits[] = {
 0x18,0x24,0x42,0x5a,0x5a,0x42,0x24,0x18 };
