#define _width 8
#define _height 8
static char _bits[] = {
 0x00,0x00,0x30,0x48,0x87,0x87,0x80,0x00 };
