#define _width 8
#define _height 8
static char _bits[] = {
 0xf0,0xe0,0xb0,0x18,0x0c,0x06,0x03,0x01 };
