#define _width 8
#define _height 8
static char _bits[] = {
 0xc0,0xa0,0x50,0x2a,0x14,0x0e,0x17,0x02 };
