#define _width 8
#define _height 8
static char _bits[] = {
 0x08,0x18,0x10,0x00,0x3c,0x18,0x18,0x10 };
