#define _width 8
#define _height 8
static char _bits[] = {
 0x42,0xa5,0x99,0x81,0xe7,0x24,0x42,0x7e };
