#define _width 8
#define _height 8
static char _bits[] = {
 0x24,0x5a,0x4a,0x52,0x89,0x91,0x99,0xe7 };
