#define _width 8
#define _height 8
static char _bits[] = {
 0x18,0x5a,0xa5,0xdb,0x99,0x24,0x42,0xa5 };
