#define _width 8
#define _height 8
static char _bits[] = {
 0x20,0x60,0xf0,0xc8,0xff,0xea,0xd4,0xfc };
