#define _width 8
#define _height 8
static char _bits[] = {
 0xa5,0xa5,0x66,0x18,0x18,0x19,0x19,0x0e };
